<svg width="29" height="29" viewBox="0 0 29 29" fill="none" xmlns="http://www.w3.org/2000/svg">
<g id="material-symbols:attach-file-add-rounded">
<path id="Vector" d="M14.1981 26.5832C12.1036 26.5832 10.3213 25.8481 8.8512 24.378C7.38107 22.9078 6.646 21.1255 6.646 19.0311V7.854C6.646 6.34359 7.17484 5.05994 8.23254 4.00305C9.29023 2.94616 10.5739 2.41731 12.0835 2.4165C13.5931 2.4157 14.8772 2.94455 15.9357 4.00305C16.9942 5.06155 17.5226 6.3452 17.521 7.854V15.7082C17.521 16.0505 17.405 16.3377 17.173 16.5697C16.941 16.8017 16.6542 16.9173 16.3127 16.9165C15.9711 16.9157 15.6843 16.7997 15.4523 16.5685C15.2203 16.3373 15.1043 16.0505 15.1043 15.7082V7.854C15.0842 7.00817 14.7873 6.29324 14.2138 5.70921C13.6402 5.12519 12.9301 4.83317 12.0835 4.83317C11.2369 4.83317 10.5219 5.12519 9.9387 5.70921C9.35548 6.29324 9.06347 7.00817 9.06266 7.854V19.0311C9.04252 20.4609 9.53593 21.6745 10.5429 22.6718C11.5498 23.6691 12.7682 24.1673 14.1981 24.1665C14.5404 24.1665 14.8627 24.1311 15.1647 24.0602C15.4668 23.9893 15.7588 23.9039 16.0408 23.804C16.363 23.6832 16.6752 23.6884 16.9772 23.8197C17.2793 23.951 17.4908 24.1774 17.6116 24.4988C17.7325 24.8202 17.7276 25.1324 17.5971 25.4353C17.4666 25.7381 17.2399 25.9496 16.9168 26.0696C16.4939 26.2307 16.0561 26.3568 15.6034 26.4478C15.1506 26.5389 14.6822 26.584 14.1981 26.5832ZM20.5418 25.3748C20.1995 25.3748 19.9127 25.2588 19.6815 25.0268C19.4503 24.7948 19.3343 24.5081 19.3335 24.1665V21.7498H16.9168C16.5745 21.7498 16.2877 21.6338 16.0565 21.4018C15.8253 21.1698 15.7093 20.8831 15.7085 20.5415C15.7077 20.1999 15.8237 19.9132 16.0565 19.6812C16.2893 19.4492 16.5761 19.3332 16.9168 19.3332H19.3335V16.9165C19.3335 16.5741 19.4495 16.2874 19.6815 16.0562C19.9135 15.825 20.2003 15.709 20.5418 15.7082C20.8834 15.7074 21.1706 15.8234 21.4034 16.0562C21.6362 16.289 21.7518 16.5758 21.7502 16.9165V19.3332H24.1668C24.5092 19.3332 24.7964 19.4492 25.0284 19.6812C25.2604 19.9132 25.376 20.1999 25.3752 20.5415C25.3744 20.8831 25.2584 21.1702 25.0272 21.403C24.796 21.6359 24.5092 21.7514 24.1668 21.7498H21.7502V24.1665C21.7502 24.5089 21.6342 24.796 21.4022 25.028C21.1702 25.26 20.8834 25.3756 20.5418 25.3748ZM12.0835 20.5415C11.7411 20.5415 11.4544 20.4255 11.2232 20.1935C10.992 19.9615 10.876 19.6747 10.8752 19.3332V8.45817C10.8752 8.11581 10.9912 7.82903 11.2232 7.59784C11.4552 7.36664 11.7419 7.25064 12.0835 7.24984C12.4251 7.24903 12.7122 7.36503 12.945 7.59784C13.1778 7.83064 13.2934 8.11742 13.2918 8.45817V19.3332C13.2918 19.6755 13.1758 19.9627 12.9438 20.1947C12.7118 20.4267 12.4251 20.5423 12.0835 20.5415ZM20.5418 13.2915C20.1995 13.2915 19.9127 13.1755 19.6815 12.9435C19.4503 12.7115 19.3343 12.4247 19.3335 12.0832V8.45817C19.3335 8.11581 19.4495 7.82903 19.6815 7.59784C19.9135 7.36664 20.2003 7.25064 20.5418 7.24984C20.8834 7.24903 21.1706 7.36503 21.4034 7.59784C21.6362 7.83064 21.7518 8.11742 21.7502 8.45817V12.0832C21.7502 12.4255 21.6342 12.7127 21.4022 12.9447C21.1702 13.1767 20.8834 13.2923 20.5418 13.2915Z" fill="#7C9885"/>
</g>
</svg>
