<svg width="24" height="24" viewBox="0 0 24 24" fill="none" xmlns="http://www.w3.org/2000/svg">
<g id="Group">
<path id="Vector" d="M9.293 18.3641L3.636 12.7071C3.44853 12.5196 3.34321 12.2653 3.34321 12.0001C3.34321 11.735 3.44853 11.4807 3.636 11.2931L9.293 5.63614C9.4816 5.45399 9.7342 5.35319 9.9964 5.35547C10.2586 5.35775 10.5094 5.46292 10.6948 5.64833C10.8802 5.83373 10.9854 6.08455 10.9877 6.34674C10.99 6.60894 10.8892 6.86154 10.707 7.05014L6.757 11.0001H20C20.2652 11.0001 20.5196 11.1055 20.7071 11.293C20.8946 11.4806 21 11.7349 21 12.0001C21 12.2654 20.8946 12.5197 20.7071 12.7073C20.5196 12.8948 20.2652 13.0001 20 13.0001H6.757L10.707 16.9501C10.8025 17.0424 10.8787 17.1527 10.9311 17.2747C10.9835 17.3967 11.0111 17.528 11.0123 17.6607C11.0134 17.7935 10.9881 17.9252 10.9378 18.0481C10.8875 18.171 10.8133 18.2826 10.7194 18.3765C10.6255 18.4704 10.5139 18.5447 10.391 18.595C10.2681 18.6452 10.1364 18.6705 10.0036 18.6694C9.87082 18.6682 9.7396 18.6407 9.6176 18.5882C9.49559 18.5358 9.38525 18.4597 9.293 18.3641Z" fill="white"/>
</g>
</svg>
