<svg width="50" height="50" viewBox="0 0 50 50" fill="none" xmlns="http://www.w3.org/2000/svg">
<g id="lucide:square-dashed">
<path id="Vector" d="M10.4167 6.25C9.3116 6.25 8.25179 6.68899 7.47039 7.47039C6.68899 8.25179 6.25 9.3116 6.25 10.4167M39.5833 6.25C40.6884 6.25 41.7482 6.68899 42.5296 7.47039C43.311 8.25179 43.75 9.3116 43.75 10.4167M43.75 39.5833C43.75 40.6884 43.311 41.7482 42.5296 42.5296C41.7482 43.311 40.6884 43.75 39.5833 43.75M10.4167 43.75C9.3116 43.75 8.25179 43.311 7.47039 42.5296C6.68899 41.7482 6.25 40.6884 6.25 39.5833M18.75 6.25H20.8333M18.75 43.75H20.8333M29.1667 6.25H31.25M29.1667 43.75H31.25M6.25 18.75V20.8333M43.75 18.75V20.8333M6.25 29.1667V31.25M43.75 29.1667V31.25" stroke="#7C9885" stroke-width="2" stroke-linecap="round" stroke-linejoin="round"/>
</g>
</svg>
