<svg width="24" height="24" viewBox="0 0 24 24" fill="none" xmlns="http://www.w3.org/2000/svg">
<path d="M14.707 5.6361L20.364 11.2931C20.5515 11.4806 20.6568 11.7349 20.6568 12.0001C20.6568 12.2653 20.5515 12.5196 20.364 12.7071L14.707 18.3641C14.5184 18.5463 14.2658 18.6471 14.0036 18.6448C13.7414 18.6425 13.4906 18.5373 13.3052 18.3519C13.1198 18.1665 13.0146 17.9157 13.0123 17.6535C13.01 17.3913 13.1108 17.1387 13.293 16.9501L17.243 13.0001H4C3.73478 13.0001 3.48043 12.8947 3.29289 12.7072C3.10536 12.5197 3 12.2653 3 12.0001C3 11.7349 3.10536 11.4805 3.29289 11.293C3.48043 11.1055 3.73478 11.0001 4 11.0001H17.243L13.293 7.0501C13.1975 6.95785 13.1213 6.84751 13.0689 6.7255C13.0165 6.6035 12.9889 6.47228 12.9877 6.3395C12.9866 6.20672 13.0119 6.07504 13.0622 5.95214C13.1125 5.82925 13.1867 5.7176 13.2806 5.6237C13.3745 5.52981 13.4861 5.45556 13.609 5.40528C13.7319 5.355 13.8636 5.32969 13.9964 5.33085C14.1292 5.332 14.2604 5.35959 14.3824 5.412C14.5044 5.46441 14.6148 5.54059 14.707 5.6361Z" fill="black"/>
</svg>
