<svg width="30" height="30" viewBox="0 0 30 30" fill="none" xmlns="http://www.w3.org/2000/svg">
<g id="material-symbols:attach-file-add-rounded">
<path id="Vector" d="M14.6875 27.5C12.5208 27.5 10.6771 26.7396 9.15625 25.2188C7.63542 23.6979 6.875 21.8542 6.875 19.6875V8.125C6.875 6.5625 7.42208 5.23458 8.51625 4.14125C9.61042 3.04792 10.9383 2.50083 12.5 2.5C14.0617 2.49917 15.39 3.04625 16.485 4.14125C17.58 5.23625 18.1267 6.56417 18.125 8.125V16.25C18.125 16.6042 18.005 16.9013 17.765 17.1413C17.525 17.3813 17.2283 17.5008 16.875 17.5C16.5217 17.4992 16.225 17.3792 15.985 17.14C15.745 16.9008 15.625 16.6042 15.625 16.25V8.125C15.6042 7.25 15.2971 6.51042 14.7037 5.90625C14.1104 5.30208 13.3758 5 12.5 5C11.6242 5 10.8846 5.30208 10.2813 5.90625C9.67792 6.51042 9.37583 7.25 9.375 8.125V19.6875C9.35417 21.1667 9.86458 22.4221 10.9062 23.4538C11.9479 24.4854 13.2083 25.0008 14.6875 25C15.0417 25 15.375 24.9633 15.6875 24.89C16 24.8167 16.3021 24.7283 16.5937 24.625C16.9271 24.5 17.25 24.5054 17.5625 24.6412C17.875 24.7771 18.0937 25.0112 18.2187 25.3438C18.3437 25.6763 18.3387 25.9992 18.2037 26.3125C18.0687 26.6258 17.8342 26.8446 17.5 26.9688C17.0625 27.1354 16.6096 27.2658 16.1412 27.36C15.6729 27.4542 15.1883 27.5008 14.6875 27.5ZM21.25 26.25C20.8958 26.25 20.5992 26.13 20.36 25.89C20.1208 25.65 20.0008 25.3533 20 25V22.5H17.5C17.1458 22.5 16.8492 22.38 16.61 22.14C16.3708 21.9 16.2508 21.6033 16.25 21.25C16.2492 20.8967 16.3692 20.6 16.61 20.36C16.8508 20.12 17.1475 20 17.5 20H20V17.5C20 17.1458 20.12 16.8492 20.36 16.61C20.6 16.3708 20.8967 16.2508 21.25 16.25C21.6033 16.2492 21.9004 16.3692 22.1412 16.61C22.3821 16.8508 22.5017 17.1475 22.5 17.5V20H25C25.3542 20 25.6512 20.12 25.8912 20.36C26.1312 20.6 26.2508 20.8967 26.25 21.25C26.2492 21.6033 26.1292 21.9004 25.89 22.1413C25.6508 22.3821 25.3542 22.5017 25 22.5H22.5V25C22.5 25.3542 22.38 25.6512 22.14 25.8912C21.9 26.1312 21.6033 26.2508 21.25 26.25ZM12.5 21.25C12.1458 21.25 11.8492 21.13 11.61 20.89C11.3708 20.65 11.2508 20.3533 11.25 20V8.75C11.25 8.39583 11.37 8.09917 11.61 7.86C11.85 7.62083 12.1467 7.50083 12.5 7.5C12.8533 7.49917 13.1504 7.61917 13.3912 7.86C13.6321 8.10083 13.7517 8.3975 13.75 8.75V20C13.75 20.3542 13.63 20.6513 13.39 20.8913C13.15 21.1313 12.8533 21.2508 12.5 21.25ZM21.25 13.75C20.8958 13.75 20.5992 13.63 20.36 13.39C20.1208 13.15 20.0008 12.8533 20 12.5V8.75C20 8.39583 20.12 8.09917 20.36 7.86C20.6 7.62083 20.8967 7.50083 21.25 7.5C21.6033 7.49917 21.9004 7.61917 22.1412 7.86C22.3821 8.10083 22.5017 8.3975 22.5 8.75V12.5C22.5 12.8542 22.38 13.1513 22.14 13.3913C21.9 13.6313 21.6033 13.7508 21.25 13.75Z" fill="#7C9885"/>
</g>
</svg>
