<svg width="30" height="31" viewBox="0 0 30 31" fill="none" xmlns="http://www.w3.org/2000/svg">
<g id="icon">
<path id="Vector" d="M26.2595 10.6144C26.9064 10.6144 27.5268 10.8714 27.9842 11.3288C28.4417 11.7862 28.6986 12.4066 28.6986 13.0535V17.9317C28.6986 18.5786 28.4417 19.199 27.9842 19.6565C27.5268 20.1139 26.9064 20.3708 26.2595 20.3708H24.9644C24.6671 22.7286 23.5195 24.8968 21.7371 26.4686C19.9547 28.0404 17.66 28.9077 15.2836 28.9077V26.4686C17.2242 26.4686 19.0854 25.6977 20.4577 24.3254C21.83 22.9532 22.6009 21.092 22.6009 19.1513V11.834C22.6009 9.8933 21.83 8.03211 20.4577 6.65985C19.0854 5.28758 17.2242 4.51665 15.2836 4.51665C13.3429 4.51665 11.4817 5.28758 10.1094 6.65985C8.73717 8.03211 7.96624 9.8933 7.96624 11.834V20.3708H4.30758C3.66068 20.3708 3.04029 20.1139 2.58287 19.6565C2.12545 19.199 1.86847 18.5786 1.86847 17.9317V13.0535C1.86847 12.4066 2.12545 11.7862 2.58287 11.3288C3.04029 10.8714 3.66068 10.6144 4.30758 10.6144H5.60274C5.90035 8.2569 7.04801 6.08899 8.83038 4.51748C10.6128 2.94596 12.9073 2.07886 15.2836 2.07886C17.6598 2.07886 19.9544 2.94596 21.7367 4.51748C23.5191 6.08899 24.6668 8.2569 24.9644 10.6144H26.2595ZM10.1127 20.1086L11.4054 18.0403C12.5677 18.7684 13.912 19.1535 15.2836 19.1513C16.6551 19.1535 17.9994 18.7684 19.1617 18.0403L20.4545 20.1086C18.9047 21.0796 17.1123 21.5932 15.2836 21.5904C13.4548 21.5932 11.6624 21.0796 10.1127 20.1086Z" fill="#7C9885"/>
</g>
</svg>
