<svg width="30" height="30" viewBox="0 0 30 30" fill="none" xmlns="http://www.w3.org/2000/svg">
<g id="mdi:account-service-outline">
<path id="Vector" d="M27.9285 25.8552L22.9282 20.8549C23.416 19.6353 23.1721 18.0499 22.0745 17.0742C20.9768 15.9766 19.3914 15.7326 18.0498 16.3424L20.3671 18.6596L18.6596 20.3671L16.2205 17.9279C15.6107 19.2694 15.8546 20.8549 16.9522 22.0745C18.0498 23.1721 19.5133 23.416 20.7329 22.9282L25.7332 27.9285C25.9771 28.1724 26.343 28.1724 26.465 27.9285L27.6846 26.7089C28.0504 26.343 28.0504 25.9771 27.9285 25.8552ZM12.1958 14.635C14.8789 14.635 17.0742 12.4398 17.0742 9.75669C17.0742 7.07361 14.8789 4.87836 12.1958 4.87836C9.51276 4.87836 7.31751 7.07361 7.31751 9.75669C7.31751 12.4398 9.51276 14.635 12.1958 14.635ZM12.1958 7.31752C13.5374 7.31752 14.635 8.41515 14.635 9.75669C14.635 11.0982 13.5374 12.1959 12.1958 12.1959C10.8543 12.1959 9.75668 11.0982 9.75668 9.75669C9.75668 8.41515 10.8543 7.31752 12.1958 7.31752ZM15.8546 24.3917H2.43918V20.7329C2.43918 17.4401 8.90297 15.8546 12.1958 15.8546C12.8056 15.8546 13.6593 15.9766 14.5131 16.0985C14.0252 16.7083 13.7813 17.4401 13.5374 18.2938C13.0496 18.2938 12.6837 18.1718 12.1958 18.1718C8.5371 18.1718 4.75639 20.0012 4.75639 20.7329V22.0745H14.0252C14.3911 23.0501 15.1228 23.7819 15.8546 24.3917Z" fill="#7C9885"/>
</g>
</svg>
