<svg width="95" height="95" viewBox="0 0 95 95" fill="none" xmlns="http://www.w3.org/2000/svg">
<g id="lucide:square-dashed">
<path id="Vector" d="M19.7917 11.875C17.692 11.875 15.6784 12.7091 14.1937 14.1937C12.7091 15.6784 11.875 17.692 11.875 19.7917M75.2083 11.875C77.308 11.875 79.3216 12.7091 80.8063 14.1937C82.2909 15.6784 83.125 17.692 83.125 19.7917M83.125 75.2083C83.125 77.308 82.2909 79.3216 80.8063 80.8063C79.3216 82.2909 77.308 83.125 75.2083 83.125M19.7917 83.125C17.692 83.125 15.6784 82.2909 14.1937 80.8063C12.7091 79.3216 11.875 77.308 11.875 75.2083M35.625 11.875H39.5833M35.625 83.125H39.5833M55.4167 11.875H59.375M55.4167 83.125H59.375M11.875 35.625V39.5833M83.125 35.625V39.5833M11.875 55.4167V59.375M83.125 55.4167V59.375" stroke="#7C9885" stroke-width="2" stroke-linecap="round" stroke-linejoin="round"/>
</g>
</svg>
