<svg width="30" height="30" viewBox="0 0 30 30" fill="none" xmlns="http://www.w3.org/2000/svg">
<g id="icon">
<path id="Vector" d="M27.2088 21.1825L20.4402 14.4139L22.3549 12.4992L17.7816 7.92591L15.8669 9.84061L9.09838 3.07208L3.3299 8.84057L10.0984 15.6091L4.29334 21.4142V25.9875H8.86667L14.6717 20.1824L21.4403 26.9509L27.2088 21.1825ZM11.8302 13.8773L6.78123 8.84057L9.09838 6.52342L10.6472 8.07225L9.19595 9.52352L10.9155 11.2431L12.3668 9.79182L14.1351 11.5602L11.8302 13.8773ZM16.4035 18.4507L18.7207 16.1335L20.489 17.9019L19.0377 19.3531L20.7573 21.0727L22.2086 19.6214L23.7574 21.1703L21.4403 23.4874L16.4035 18.4507ZM19.0902 6.62464L22.1854 3.5282L26.7563 8.09908L23.6611 11.1955L19.0902 6.62464Z" fill="#7C9885"/>
</g>
</svg>
