<svg width="35" height="34" viewBox="0 0 35 34" fill="none" xmlns="http://www.w3.org/2000/svg">
<g id="Group">
<path id="Vector" d="M17.5802 21.3614L19.7601 23.5413L26.3029 17L19.7616 10.4587L17.5817 12.6402L20.3983 15.4584H8.77879V18.5417H20.3983L17.5802 21.3614Z" fill="#7C9885"/>
<path id="Vector_2" fill-rule="evenodd" clip-rule="evenodd" d="M29.4911 28.9912C36.1141 22.3682 36.1141 11.632 29.4911 5.009C22.8681 -1.614 12.1319 -1.614 5.5089 5.009C-1.11411 11.632 -1.11411 22.3682 5.5089 28.9912C12.1319 35.6142 22.8681 35.6142 29.4911 28.9912ZM27.3111 26.8113C29.9132 24.2092 31.3751 20.68 31.3751 17.0001C31.3751 13.3202 29.9132 9.791 27.3111 7.18892C24.7091 4.58683 21.1799 3.125 17.5 3.125C13.8201 3.125 10.2909 4.58683 7.68881 7.18892C5.08673 9.791 3.62489 13.3202 3.62489 17.0001C3.62489 20.68 5.08673 24.2092 7.68881 26.8113C10.2909 29.4133 13.8201 30.8752 17.5 30.8752C21.1799 30.8752 24.7091 29.4133 27.3111 26.8113Z" fill="#7C9885"/>
</g>
</svg>
