<svg width="75" height="75" viewBox="0 0 75 75" fill="none" xmlns="http://www.w3.org/2000/svg">
<path id="Union" fill-rule="evenodd" clip-rule="evenodd" d="M9.79167 0.875C7.42682 0.875 5.15883 1.81443 3.48663 3.48663C1.81443 5.15883 0.875 7.42682 0.875 9.79167C0.875 10.344 1.32272 10.7917 1.875 10.7917C2.42728 10.7917 2.875 10.344 2.875 9.79167C2.875 7.95725 3.60372 6.19797 4.90084 4.90084C6.19797 3.60372 7.95725 2.875 9.79167 2.875C10.344 2.875 10.7917 2.42728 10.7917 1.875C10.7917 1.32272 10.344 0.875 9.79167 0.875ZM25.625 0.875C25.0727 0.875 24.625 1.32272 24.625 1.875C24.625 2.42728 25.0727 2.875 25.625 2.875H29.5833C30.1356 2.875 30.5833 2.42728 30.5833 1.875C30.5833 1.32272 30.1356 0.875 29.5833 0.875H25.625ZM45.4167 0.875C44.8644 0.875 44.4167 1.32272 44.4167 1.875C44.4167 2.42728 44.8644 2.875 45.4167 2.875H49.375C49.9273 2.875 50.375 2.42728 50.375 1.875C50.375 1.32272 49.9273 0.875 49.375 0.875H45.4167ZM65.2083 0.875C64.656 0.875 64.2083 1.32272 64.2083 1.875C64.2083 2.42728 64.656 2.875 65.2083 2.875C67.0427 2.875 68.802 3.60372 70.0992 4.90084C71.3963 6.19797 72.125 7.95725 72.125 9.79167C72.125 10.344 72.5727 10.7917 73.125 10.7917C73.6773 10.7917 74.125 10.344 74.125 9.79167C74.125 7.42682 73.1856 5.15883 71.5134 3.48663C69.8412 1.81443 67.5732 0.875 65.2083 0.875ZM2.875 25.625C2.875 25.0727 2.42728 24.625 1.875 24.625C1.32272 24.625 0.875 25.0727 0.875 25.625V29.5833C0.875 30.1356 1.32272 30.5833 1.875 30.5833C2.42728 30.5833 2.875 30.1356 2.875 29.5833V25.625ZM74.125 25.625C74.125 25.0727 73.6773 24.625 73.125 24.625C72.5727 24.625 72.125 25.0727 72.125 25.625V29.5833C72.125 30.1356 72.5727 30.5833 73.125 30.5833C73.6773 30.5833 74.125 30.1356 74.125 29.5833V25.625ZM2.875 45.4167C2.875 44.8644 2.42728 44.4167 1.875 44.4167C1.32272 44.4167 0.875 44.8644 0.875 45.4167V49.375C0.875 49.9273 1.32272 50.375 1.875 50.375C2.42728 50.375 2.875 49.9273 2.875 49.375V45.4167ZM74.125 45.4167C74.125 44.8644 73.6773 44.4167 73.125 44.4167C72.5727 44.4167 72.125 44.8644 72.125 45.4167V49.375C72.125 49.9273 72.5727 50.375 73.125 50.375C73.6773 50.375 74.125 49.9273 74.125 49.375V45.4167ZM2.875 65.2083C2.875 64.656 2.42728 64.2083 1.875 64.2083C1.32272 64.2083 0.875 64.656 0.875 65.2083C0.875 67.5732 1.81443 69.8412 3.48663 71.5134C5.15883 73.1856 7.42682 74.125 9.79167 74.125C10.344 74.125 10.7917 73.6773 10.7917 73.125C10.7917 72.5727 10.344 72.125 9.79167 72.125C7.95725 72.125 6.19797 71.3963 4.90084 70.0992C3.60372 68.802 2.875 67.0427 2.875 65.2083ZM74.125 65.2083C74.125 64.656 73.6773 64.2083 73.125 64.2083C72.5727 64.2083 72.125 64.656 72.125 65.2083C72.125 67.0427 71.3963 68.802 70.0992 70.0992C68.802 71.3963 67.0427 72.125 65.2083 72.125C64.656 72.125 64.2083 72.5727 64.2083 73.125C64.2083 73.6773 64.656 74.125 65.2083 74.125C67.5732 74.125 69.8412 73.1856 71.5134 71.5134C73.1856 69.8412 74.125 67.5732 74.125 65.2083ZM25.625 72.125C25.0727 72.125 24.625 72.5727 24.625 73.125C24.625 73.6773 25.0727 74.125 25.625 74.125H29.5833C30.1356 74.125 30.5833 73.6773 30.5833 73.125C30.5833 72.5727 30.1356 72.125 29.5833 72.125H25.625ZM45.4167 72.125C44.8644 72.125 44.4167 72.5727 44.4167 73.125C44.4167 73.6773 44.8644 74.125 45.4167 74.125H49.375C49.9273 74.125 50.375 73.6773 50.375 73.125C50.375 72.5727 49.9273 72.125 49.375 72.125H45.4167ZM32.1562 48.2188C33.6771 49.7396 35.5208 50.5 37.6875 50.5C38.1883 50.5008 38.6729 50.4542 39.1413 50.36C39.6096 50.2658 40.0625 50.1354 40.5 49.9688C40.8342 49.8446 41.0687 49.6258 41.2038 49.3125C41.3387 48.9992 41.3438 48.6763 41.2188 48.3438C41.0938 48.0112 40.875 47.7771 40.5625 47.6412C40.25 47.5054 39.9271 47.5 39.5938 47.625C39.3021 47.7283 39 47.8167 38.6875 47.89C38.375 47.9633 38.0417 48 37.6875 48C36.2083 48.0008 34.9479 47.4854 33.9062 46.4538C32.8646 45.4221 32.3542 44.1667 32.375 42.6875V31.125C32.3758 30.25 32.6779 29.5104 33.2812 28.9062C33.8846 28.3021 34.6242 28 35.5 28C36.3758 28 37.1104 28.3021 37.7038 28.9062C38.2971 29.5104 38.6042 30.25 38.625 31.125V39.25C38.625 39.6042 38.745 39.9008 38.985 40.14C39.225 40.3792 39.5217 40.4992 39.875 40.5C40.2283 40.5008 40.525 40.3812 40.765 40.1413C41.005 39.9013 41.125 39.6042 41.125 39.25V31.125C41.1267 29.5642 40.58 28.2362 39.485 27.1413C38.39 26.0462 37.0617 25.4992 35.5 25.5C33.9383 25.5008 32.6104 26.0479 31.5163 27.1413C30.4221 28.2346 29.875 29.5625 29.875 31.125V42.6875C29.875 44.8542 30.6354 46.6979 32.1562 48.2188ZM43.36 48.89C43.5992 49.13 43.8958 49.25 44.25 49.25C44.6033 49.2508 44.9 49.1312 45.14 48.8912C45.38 48.6512 45.5 48.3542 45.5 48V45.5H48C48.3542 45.5017 48.6508 45.3821 48.89 45.1413C49.1292 44.9004 49.2492 44.6033 49.25 44.25C49.2508 43.8967 49.1312 43.6 48.8912 43.36C48.6512 43.12 48.3542 43 48 43H45.5V40.5C45.5017 40.1475 45.3821 39.8508 45.1412 39.61C44.9004 39.3692 44.6033 39.2492 44.25 39.25C43.8967 39.2508 43.6 39.3708 43.36 39.61C43.12 39.8492 43 40.1458 43 40.5V43H40.5C40.1475 43 39.8508 43.12 39.61 43.36C39.3692 43.6 39.2492 43.8967 39.25 44.25C39.2508 44.6033 39.3708 44.9 39.61 45.14C39.8492 45.38 40.1458 45.5 40.5 45.5H43V48C43.0008 48.3533 43.1208 48.65 43.36 48.89ZM34.61 43.89C34.8492 44.13 35.1458 44.25 35.5 44.25C35.8533 44.2508 36.15 44.1312 36.39 43.8913C36.63 43.6512 36.75 43.3542 36.75 43V31.75C36.7517 31.3975 36.6321 31.1008 36.3913 30.86C36.1504 30.6192 35.8533 30.4992 35.5 30.5C35.1467 30.5008 34.85 30.6208 34.61 30.86C34.37 31.0992 34.25 31.3958 34.25 31.75V43C34.2508 43.3533 34.3708 43.65 34.61 43.89ZM43.36 36.39C43.5992 36.63 43.8958 36.75 44.25 36.75C44.6033 36.7508 44.9 36.6312 45.14 36.3913C45.38 36.1513 45.5 35.8542 45.5 35.5V31.75C45.5017 31.3975 45.3821 31.1008 45.1412 30.86C44.9004 30.6192 44.6033 30.4992 44.25 30.5C43.8967 30.5008 43.6 30.6208 43.36 30.86C43.12 31.0992 43 31.3958 43 31.75V35.5C43.0008 35.8533 43.1208 36.15 43.36 36.39Z" fill="#7C9885"/>
</svg>
